# xmcd CD database file
#
# Track frame offsets:
#	150
#	16072
#	28270
#	45180
#	58670
#	72654
#	86296
#	101800
#	118216
#	129312
#
# Disc length: 1881 seconds
#
# Revision: 0
# Processed by: cddbd v1.5.1PL2 Copyright (c) Steve Scherf et al.
# Submitted via: CDex 1.51
#
DISCID=8107570a
DTITLE=Nicolette Larson - Say When
DYEAR=1985
DGENRE=Country
TTITLE0=01 When you get a little lonely
TTITLE1=02 Say when
TTITLE2=03 Building bridges
TTITLE3=04 Only love will make it right
TTITLE4=05 I just keep alling in love
TTITLE5=06 Break away
TTITLE6=07 Blow on chilly wind
TTITLE7=08 Dancin''round and 'round
TTITLE8=09 You were the one
TTITLE9=10 You can't say
EXTD=YEAR: 1985
EXTT0=
EXTT1=
EXTT2=
EXTT3=
EXTT4=
EXTT5=
EXTT6=
EXTT7=
EXTT8=
EXTT9=
PLAYORDER=
